# OBJ generated by ONSHAPE BY PTC INC, 1.210 Units = meters
mtllib expo_marker.mtl
g Part 1
v 0.0842427 0.0193965 -0.00284683 
v 0.0842427 0.100387 -0.00284683 
v 0.0849341 0.100387 -0.00280934 
v 0.0849341 0.0193965 -0.00280934 
v 0.0856174 0.100387 -0.00269732 
v 0.0856174 0.0193965 -0.00269732 
v 0.0862846 0.100387 -0.00251207 
v 0.0862846 0.0193965 -0.00251207 
v 0.0869278 0.100387 -0.00225578 
v 0.0869278 0.0193965 -0.00225578 
v 0.0875396 0.100387 -0.00193143 
v 0.0875396 0.0193965 -0.00193143 
v 0.0881127 0.100387 -0.00154285 
v 0.0881127 0.0193965 -0.00154285 
v 0.0886405 0.100387 -0.00109457 
v 0.0886405 0.0193965 -0.00109457 
v 0.0891167 0.100387 -0.000591868 
v 0.0891167 0.0193965 -0.000591868 
v 0.0895357 0.100387 -4.06236e-05 
v 0.0895357 0.0193965 -4.06236e-05 
v 0.0898927 0.100387 0.000552696 
v 0.0898927 0.0193965 0.000552696 
v 0.0901835 0.100387 0.00118113 
v 0.0901835 0.0193965 0.00118113 
v 0.0904046 0.100387 0.00183732 
v 0.0904046 0.0193965 0.00183732 
v 0.0905534 0.100387 0.00251357 
v 0.0905534 0.0193965 0.00251357 
v 0.0906283 0.100387 0.00320195 
v 0.0906283 0.0193965 0.00320195 
v 0.0906283 0.100387 0.00389439 
v 0.0906283 0.0193965 0.00389439 
v 0.0905534 0.100387 0.00458276 
v 0.0905534 0.0193965 0.00458276 
v 0.0904046 0.100387 0.00525901 
v 0.0904046 0.0193965 0.00525901 
v 0.0901835 0.100387 0.0059152 
v 0.0901835 0.0193965 0.0059152 
v 0.0898927 0.100387 0.00654364 
v 0.0898927 0.0193965 0.00654364 
v 0.0895357 0.100387 0.00713696 
v 0.0895357 0.0193965 0.00713696 
v 0.0891167 0.100387 0.0076882 
v 0.0891167 0.0193965 0.0076882 
v 0.0886405 0.100387 0.00819091 
v 0.0886405 0.0193965 0.00819091 
v 0.0881127 0.100387 0.00863918 
v 0.0881127 0.0193965 0.00863918 
v 0.0875396 0.100387 0.00902777 
v 0.0875396 0.0193965 0.00902777 
v 0.0869278 0.100387 0.00935211 
v 0.0869278 0.0193965 0.00935211 
v 0.0862846 0.100387 0.00960841 
v 0.0862846 0.0193965 0.00960841 
v 0.0856174 0.100387 0.00979366 
v 0.0856174 0.0193965 0.00979366 
v 0.0849341 0.100387 0.00990568 
v 0.0849341 0.0193965 0.00990568 
v 0.0842427 0.100387 0.00994317 
v 0.0842427 0.0193965 0.00994317 
v 0.0835512 0.100387 0.00990568 
v 0.0835512 0.0193965 0.00990568 
v 0.0828679 0.100387 0.00979366 
v 0.0828679 0.0193965 0.00979366 
v 0.0822007 0.100387 0.00960841 
v 0.0822007 0.0193965 0.00960841 
v 0.0815575 0.100387 0.00935211 
v 0.0815575 0.0193965 0.00935211 
v 0.0809457 0.100387 0.00902777 
v 0.0809457 0.0193965 0.00902777 
v 0.0803726 0.100387 0.00863918 
v 0.0803726 0.0193965 0.00863918 
v 0.0798448 0.100387 0.00819091 
v 0.0798448 0.0193965 0.00819091 
v 0.0793686 0.100387 0.0076882 
v 0.0793686 0.0193965 0.0076882 
v 0.0789496 0.100387 0.00713696 
v 0.0789496 0.0193965 0.00713696 
v 0.0785926 0.100387 0.00654364 
v 0.0785926 0.0193965 0.00654364 
v 0.0783018 0.100387 0.0059152 
v 0.0783018 0.0193965 0.0059152 
v 0.0780808 0.100387 0.00525901 
v 0.0780808 0.0193965 0.00525901 
v 0.0779319 0.100387 0.00458276 
v 0.0779319 0.0193965 0.00458276 
v 0.077857 0.100387 0.00389439 
v 0.077857 0.0193965 0.00389439 
v 0.077857 0.100387 0.00320195 
v 0.077857 0.0193965 0.00320195 
v 0.0779319 0.100387 0.00251357 
v 0.0779319 0.0193965 0.00251357 
v 0.0780808 0.100387 0.00183732 
v 0.0780808 0.0193965 0.00183732 
v 0.0783018 0.100387 0.00118113 
v 0.0783018 0.0193965 0.00118113 
v 0.0785926 0.100387 0.000552696 
v 0.0785926 0.0193965 0.000552696 
v 0.0789496 0.100387 -4.06236e-05 
v 0.0789496 0.0193965 -4.06236e-05 
v 0.0793686 0.100387 -0.000591868 
v 0.0793686 0.0193965 -0.000591868 
v 0.0798448 0.100387 -0.00109457 
v 0.0798448 0.0193965 -0.00109457 
v 0.0803726 0.100387 -0.00154285 
v 0.0803726 0.0193965 -0.00154285 
v 0.0809457 0.100387 -0.00193143 
v 0.0809457 0.0193965 -0.00193143 
v 0.0815575 0.100387 -0.00225578 
v 0.0815575 0.0193965 -0.00225578 
v 0.0822007 0.100387 -0.00251207 
v 0.0822007 0.0193965 -0.00251207 
v 0.0828679 0.100387 -0.00269732 
v 0.0828679 0.0193965 -0.00269732 
v 0.0835512 0.100387 -0.00280934 
v 0.0835512 0.0193965 -0.00280934 
v 0.0873127 0.0193965 0.00539817 
v 0.0873127 0.0193965 0.00169817 
v 0.0811727 0.0193965 0.00539817 
v 0.0811727 0.0193965 0.00169817 
v 0.0873127 0.0278965 0.00539817 
v 0.0811727 0.0278965 0.00539817 
v 0.0811727 0.0278965 0.00169817 
v 0.0873127 0.0278965 0.00169817 
v 0.084157 0.100387 -0.000344836 
v 0.0843283 0.100387 0.00744117 
v 0.0879531 0.100387 0.00472939 
v 0.0854239 0.100387 -0.000162296 
v 0.0881357 0.100387 0.00346247 
v 0.0782755 0.100387 0.0020418 
v 0.0844821 0.100387 -0.00260153 
v 0.085749 0.100387 -0.00241899 
v 0.0805322 0.100387 0.00236695 
v 0.0830614 0.100387 0.00725863 
v 0.078093 0.100387 0.00330872 
v 0.0803496 0.100387 0.00363387 
v 0.0903924 0.100387 0.00378762 
v 0.0902098 0.100387 0.00505454 
v 0.0840032 0.100387 0.00969787 
v 0.0827363 0.100387 0.00951533 
v 0.084157 0.10013 -0.000344836 
v 0.0844821 0.0989102 -0.00260153 
v 0.085749 0.0989102 -0.00241899 
v 0.0854239 0.10013 -0.000162296 
v 0.0881357 0.10013 0.00346247 
v 0.0903924 0.0989102 0.00378762 
v 0.0902098 0.0989102 0.00505454 
v 0.0879531 0.10013 0.00472939 
v 0.0843283 0.10013 0.00744117 
v 0.0840032 0.0989102 0.00969787 
v 0.0827363 0.0989102 0.00951533 
v 0.0830614 0.10013 0.00725863 
v 0.0803496 0.10013 0.00363387 
v 0.078093 0.0989102 0.00330872 
v 0.0782755 0.0989102 0.0020418 
v 0.0805322 0.10013 0.00236695 
vn 0 0 -1 
vn 0.108119 0 -0.994138 
vn 0.21497 0 -0.976621 
vn 0.319302 0 -0.947653 
vn 0.419889 0 -0.907575 
vn 0.515554 0 -0.856857 
vn 0.605174 0 -0.796093 
vn 0.687699 0 -0.725995 
vn 0.762162 0 -0.647386 
vn 0.827689 0 -0.561187 
vn 0.883512 0 -0.468408 
vn 0.928977 0 -0.370138 
vn 0.96355 0 -0.267528 
vn 0.986827 0 -0.161782 
vn 0.998533 0 -0.0541389 
vn 0.998533 0 0.0541389 
vn 0.986827 0 0.161782 
vn 0.96355 0 0.267528 
vn 0.928977 0 0.370138 
vn 0.883512 0 0.468408 
vn 0.827689 0 0.561187 
vn 0.762162 0 0.647386 
vn 0.687699 0 0.725995 
vn 0.605174 0 0.796093 
vn 0.515554 0 0.856857 
vn 0.419889 0 0.907575 
vn 0.319302 0 0.947653 
vn 0.21497 0 0.976621 
vn 0.108119 0 0.994138 
vn 5.66554e-16 0 1 
vn -0.108119 0 0.994138 
vn -0.21497 0 0.976621 
vn -0.319302 0 0.947653 
vn -0.419889 0 0.907575 
vn -0.515554 0 0.856857 
vn -0.605174 0 0.796093 
vn -0.687699 0 0.725995 
vn -0.762162 0 0.647386 
vn -0.827689 0 0.561187 
vn -0.883512 0 0.468408 
vn -0.928977 0 0.370138 
vn -0.96355 0 0.267528 
vn -0.986827 0 0.161782 
vn -0.998533 0 0.0541389 
vn -0.998533 0 -0.0541389 
vn -0.986827 0 -0.161782 
vn -0.96355 0 -0.267528 
vn -0.928977 0 -0.370138 
vn -0.883512 0 -0.468408 
vn -0.827689 0 -0.561187 
vn -0.762162 0 -0.647386 
vn -0.687699 0 -0.725995 
vn -0.605174 0 -0.796093 
vn -0.515554 0 -0.856857 
vn -0.419889 0 -0.907575 
vn -0.319302 0 -0.947653 
vn -0.21497 0 -0.976621 
vn -0.108119 0 -0.994138 
vn 0 -1 0 
vn 0 0 -1 
vn 1 0 0 
vn 0 0 1 
vn -1 0 0 
vn 0 1 0 
vn 0.989779 -2.41272e-16 0.142609 
vn -0.989779 2.41272e-16 -0.142609 
vn -0.142609 2.09461e-17 0.989779 
vn 0.0672819 0.88171 -0.46697 
vn 0.142609 -1.67455e-15 -0.989779 
vn -0.142609 -2.41272e-16 0.989779 
vn -0.989779 2.09461e-17 -0.142609 
vn 0.46697 0.88171 0.0672819 
vn 0.989779 -1.67455e-15 0.142609 
vn -0.989779 2.41272e-16 -0.142609 
vn 0.142609 2.09461e-17 -0.989779 
vn -0.0672819 0.88171 0.46697 
vn -0.142609 -1.67455e-15 0.989779 
vn 0.142609 2.41272e-16 -0.989779 
vn 0.989779 2.09461e-17 0.142609 
vn -0.46697 0.88171 -0.0672819 
vn -0.989779 -1.67455e-15 -0.142609 
usemtl 0.000000_0.007843_0.780392_0.000000_0.000000
o mesh0
f 1//1 2//1 3//2 
f 4//2 3//2 5//3 
f 6//3 5//3 7//4 
f 8//4 7//4 9//5 
f 10//5 9//5 11//6 
f 12//6 11//6 13//7 
f 14//7 13//7 15//8 
f 16//8 15//8 17//9 
f 18//9 17//9 19//10 
f 20//10 19//10 21//11 
f 22//11 21//11 23//12 
f 24//12 23//12 25//13 
f 26//13 25//13 27//14 
f 28//14 27//14 29//15 
f 30//15 29//15 31//16 
f 32//16 31//16 33//17 
f 34//17 33//17 35//18 
f 36//18 35//18 37//19 
f 38//19 37//19 39//20 
f 40//20 39//20 41//21 
f 42//21 41//21 43//22 
f 44//22 43//22 45//23 
f 46//23 45//23 47//24 
f 48//24 47//24 49//25 
f 50//25 49//25 51//26 
f 52//26 51//26 53//27 
f 54//27 53//27 55//28 
f 56//28 55//28 57//29 
f 58//29 57//29 59//30 
f 60//30 59//30 61//31 
f 62//31 61//31 63//32 
f 64//32 63//32 65//33 
f 66//33 65//33 67//34 
f 68//34 67//34 69//35 
f 70//35 69//35 71//36 
f 72//36 71//36 73//37 
f 74//37 73//37 75//38 
f 76//38 75//38 77//39 
f 78//39 77//39 79//40 
f 80//40 79//40 81//41 
f 82//41 81//41 83//42 
f 84//42 83//42 85//43 
f 86//43 85//43 87//44 
f 88//44 87//44 89//45 
f 90//45 89//45 91//46 
f 92//46 91//46 93//47 
f 94//47 93//47 95//48 
f 96//48 95//48 97//49 
f 98//49 97//49 99//50 
f 100//50 99//50 101//51 
f 102//51 101//51 103//52 
f 104//52 103//52 105//53 
f 106//53 105//53 107//54 
f 108//54 107//54 109//55 
f 110//55 109//55 111//56 
f 112//56 111//56 113//57 
f 114//57 113//57 115//58 
f 116//58 115//58 2//1 
f 2//1 1//1 116//58 
f 115//58 116//58 114//57 
f 113//57 114//57 112//56 
f 111//56 112//56 110//55 
f 109//55 110//55 108//54 
f 107//54 108//54 106//53 
f 105//53 106//53 104//52 
f 103//52 104//52 102//51 
f 101//51 102//51 100//50 
f 99//50 100//50 98//49 
f 97//49 98//49 96//48 
f 95//48 96//48 94//47 
f 93//47 94//47 92//46 
f 91//46 92//46 90//45 
f 89//45 90//45 88//44 
f 87//44 88//44 86//43 
f 85//43 86//43 84//42 
f 83//42 84//42 82//41 
f 81//41 82//41 80//40 
f 79//40 80//40 78//39 
f 77//39 78//39 76//38 
f 75//38 76//38 74//37 
f 73//37 74//37 72//36 
f 71//36 72//36 70//35 
f 69//35 70//35 68//34 
f 67//34 68//34 66//33 
f 65//33 66//33 64//32 
f 63//32 64//32 62//31 
f 61//31 62//31 60//30 
f 59//30 60//30 58//29 
f 57//29 58//29 56//28 
f 55//28 56//28 54//27 
f 53//27 54//27 52//26 
f 51//26 52//26 50//25 
f 49//25 50//25 48//24 
f 47//24 48//24 46//23 
f 45//23 46//23 44//22 
f 43//22 44//22 42//21 
f 41//21 42//21 40//20 
f 39//20 40//20 38//19 
f 37//19 38//19 36//18 
f 35//18 36//18 34//17 
f 33//17 34//17 32//16 
f 31//16 32//16 30//15 
f 29//15 30//15 28//14 
f 27//14 28//14 26//13 
f 25//13 26//13 24//12 
f 23//12 24//12 22//11 
f 21//11 22//11 20//10 
f 19//10 20//10 18//9 
f 17//9 18//9 16//8 
f 15//8 16//8 14//7 
f 13//7 14//7 12//6 
f 11//6 12//6 10//5 
f 9//5 10//5 8//4 
f 7//4 8//4 6//3 
f 5//3 6//3 4//2 
f 3//2 4//2 1//1 
o mesh1
f 117//59 118//59 30//59 
f 119//59 117//59 66//59 
f 117//59 60//59 62//59 
f 117//59 54//59 56//59 
f 117//59 46//59 48//59 
f 119//59 88//59 90//59 
f 119//59 82//59 84//59 
f 120//59 1//59 4//59 
f 120//59 112//59 114//59 
f 117//59 36//59 38//59 
f 30//59 32//59 117//59 
f 119//59 68//59 70//59 
f 117//59 64//59 66//59 
f 117//59 58//59 60//59 
f 117//59 52//59 54//59 
f 48//59 50//59 117//59 
f 120//59 92//59 94//59 
f 90//59 120//59 119//59 
f 119//59 80//59 82//59 
f 119//59 76//59 78//59 
f 118//59 10//59 12//59 
f 120//59 116//59 1//59 
f 120//59 110//59 112//59 
f 117//59 34//59 36//59 
f 118//59 28//59 30//59 
f 119//59 72//59 74//59 
f 66//59 68//59 119//59 
f 56//59 58//59 117//59 
f 117//59 44//59 46//59 
f 120//59 98//59 100//59 
f 94//59 96//59 120//59 
f 119//59 86//59 88//59 
f 78//59 80//59 119//59 
f 12//59 14//59 118//59 
f 118//59 120//59 8//59 
f 114//59 116//59 120//59 
f 120//59 106//59 108//59 
f 117//59 40//59 42//59 
f 32//59 34//59 117//59 
f 70//59 72//59 119//59 
f 50//59 52//59 117//59 
f 96//59 98//59 120//59 
f 84//59 86//59 119//59 
f 14//59 16//59 118//59 
f 120//59 6//59 8//59 
f 108//59 110//59 120//59 
f 120//59 102//59 104//59 
f 38//59 40//59 117//59 
f 118//59 24//59 26//59 
f 118//59 18//59 20//59 
f 62//59 64//59 117//59 
f 90//59 92//59 120//59 
f 8//59 10//59 118//59 
f 104//59 106//59 120//59 
f 26//59 28//59 118//59 
f 20//59 22//59 118//59 
f 100//59 102//59 120//59 
f 4//59 6//59 120//59 
f 22//59 24//59 118//59 
f 16//59 18//59 118//59 
f 74//59 76//59 119//59 
f 42//59 44//59 117//59 
usemtl 0.796078_0.823529_0.937255_0.000000_0.000000
o mesh2
f 121//60 117//60 119//60 
f 119//60 122//60 121//60 
o mesh3
f 123//59 124//59 121//59 
f 121//59 122//59 123//59 
o mesh4
f 122//61 119//61 120//61 
f 120//61 123//61 122//61 
o mesh5
f 123//62 120//62 118//62 
f 118//62 124//62 123//62 
o mesh6
f 124//63 118//63 117//63 
f 117//63 121//63 124//63 
usemtl 0.000000_0.007843_0.780392_0.000000_0.000000
o mesh7
f 125//64 107//64 105//64 
f 125//64 113//64 111//64 
f 126//64 49//64 47//64 
f 125//64 109//64 107//64 
f 125//64 115//64 113//64 
f 47//64 127//64 126//64 
f 128//64 129//64 19//64 
f 95//64 93//64 130//64 
f 111//64 109//64 125//64 
f 125//64 131//64 2//64 
f 126//64 51//64 49//64 
f 128//64 13//64 11//64 
f 19//64 17//64 128//64 
f 132//64 5//64 3//64 
f 133//64 97//64 95//64 
f 133//64 101//64 99//64 
f 133//64 105//64 103//64 
f 2//64 115//64 125//64 
f 127//64 43//64 41//64 
f 47//64 45//64 127//64 
f 126//64 57//64 55//64 
f 134//64 67//64 65//64 
f 128//64 9//64 7//64 
f 128//64 15//64 13//64 
f 129//64 21//64 19//64 
f 3//64 131//64 132//64 
f 99//64 97//64 133//64 
f 105//64 133//64 125//64 
f 135//64 130//64 91//64 
f 45//64 43//64 127//64 
f 55//64 53//64 126//64 
f 134//64 69//64 67//64 
f 134//64 136//64 77//64 
f 136//64 83//64 81//64 
f 11//64 9//64 128//64 
f 129//64 23//64 21//64 
f 129//64 27//64 25//64 
f 129//64 137//64 29//64 
f 132//64 7//64 5//64 
f 103//64 101//64 133//64 
f 91//64 89//64 135//64 
f 37//64 35//64 138//64 
f 53//64 51//64 126//64 
f 126//64 139//64 59//64 
f 125//64 136//64 134//64 
f 125//64 127//64 129//64 
f 134//64 71//64 69//64 
f 134//64 75//64 73//64 
f 136//64 79//64 77//64 
f 136//64 85//64 83//64 
f 17//64 15//64 128//64 
f 29//64 27//64 129//64 
f 130//64 133//64 95//64 
f 130//64 93//64 91//64 
f 127//64 39//64 37//64 
f 59//64 57//64 126//64 
f 125//64 133//64 136//64 
f 125//64 126//64 127//64 
f 73//64 71//64 134//64 
f 81//64 79//64 136//64 
f 140//64 63//64 61//64 
f 25//64 23//64 129//64 
f 89//64 87//64 135//64 
f 41//64 39//64 127//64 
f 129//64 128//64 125//64 
f 77//64 75//64 134//64 
f 136//64 135//64 87//64 
f 61//64 139//64 140//64 
f 137//64 138//64 33//64 
f 3//64 2//64 131//64 
f 134//64 126//64 125//64 
f 87//64 85//64 136//64 
f 140//64 65//64 63//64 
f 33//64 31//64 137//64 
f 138//64 127//64 37//64 
f 61//64 59//64 139//64 
f 138//64 35//64 33//64 
f 65//64 140//64 134//64 
f 7//64 132//64 128//64 
f 31//64 29//64 137//64 
usemtl 0.796078_0.823529_0.937255_0.000000_0.000000
o mesh8
f 131//65 125//65 141//65 
f 141//65 142//65 131//65 
o mesh9
f 132//66 143//66 144//66 
f 144//66 128//66 132//66 
o mesh10
f 143//67 132//67 131//67 
f 131//67 142//67 143//67 
o mesh11
f 144//68 143//68 142//68 
f 142//68 141//68 144//68 
o mesh12
f 144//69 141//69 125//69 
f 125//69 128//69 144//69 
o mesh13
f 137//70 129//70 145//70 
f 145//70 146//70 137//70 
o mesh14
f 138//69 147//69 148//69 
f 148//69 127//69 138//69 
o mesh15
f 138//71 137//71 146//71 
f 146//71 147//71 138//71 
o mesh16
f 145//72 148//72 147//72 
f 147//72 146//72 145//72 
o mesh17
f 148//73 145//73 129//73 
f 129//73 127//73 148//73 
o mesh18
f 139//74 126//74 149//74 
f 149//74 150//74 139//74 
o mesh19
f 140//73 151//73 152//73 
f 152//73 134//73 140//73 
o mesh20
f 140//75 139//75 150//75 
f 150//75 151//75 140//75 
o mesh21
f 152//76 151//76 150//76 
f 150//76 149//76 152//76 
o mesh22
f 152//77 149//77 126//77 
f 126//77 134//77 152//77 
o mesh23
f 135//78 136//78 153//78 
f 153//78 154//78 135//78 
o mesh24
f 130//77 155//77 156//77 
f 156//77 133//77 130//77 
o mesh25
f 130//79 135//79 154//79 
f 154//79 155//79 130//79 
o mesh26
f 154//80 153//80 156//80 
f 156//80 155//80 154//80 
o mesh27
f 156//81 153//81 136//81 
f 136//81 133//81 156//81 
g Part 1
v 0.0867627 0.0219324 0.00169817 
v 0.0867627 0.0219324 0.00539817 
v 0.0873127 0.0219324 0.00539817 
v 0.0873127 0.0219324 0.00169817 
v 0.0867627 0.0232324 0.00169817 
v 0.0867627 0.0232324 0.00539817 
v 0.0873127 0.0232324 0.00169817 
v 0.0873127 0.0232324 0.00539817 
v 0.0873127 0.0103947 0.00539817 
v 0.0873127 0.00790767 0.00449817 
v 0.0873127 0.00790767 0.00259817 
v 0.0873127 0.0103947 0.00169817 
v 0.0811727 0.00336941 0.00259817 
v 0.0811727 0.00585643 0.00169817 
v 0.0811727 0.00585643 0.00539817 
v 0.0811727 0.00336941 0.00449817 
v 0.0811727 0.0219324 0.00169817 
v 0.0811727 0.0219324 0.00539817 
v 0.0817227 0.0219324 0.00169817 
v 0.0817227 0.0219324 0.00539817 
v 0.0817227 0.0232324 0.00169817 
v 0.0817227 0.0232324 0.00539817 
v 0.0811727 0.0232324 0.00169817 
v 0.0811727 0.0232324 0.00539817 
v 0.0873127 0.0414207 0.00169817 
v 0.0811727 0.0368824 0.00169817 
v 0.0873127 0.0414207 0.00539817 
v 0.0811727 0.0368824 0.00539817 
v 0.0811727 0.0393694 0.00449817 
v 0.0811727 0.0393694 0.00259817 
v 0.0873127 0.0439077 0.00259817 
v 0.0873127 0.0439077 0.00449817 
vn 0 1 0 
vn 1 0 0 
vn 0 -1 0 
vn 0.243917 -0.330005 -0.911922 
vn 0.243917 -0.330005 0.911922 
vn 0.594391 -0.804176 0 
vn -1 0 0 
vn 0 1 0 
vn 0 -1 0 
vn 0 0 -1 
vn 0 0 1 
vn -1 0 0 
vn 1 3.61401e-17 0 
vn -0.243917 0.330005 -0.911922 
vn -0.243917 0.330005 0.911922 
vn -0.594391 0.804176 0 
o mesh28
f 157//82 158//82 159//82 
f 159//82 160//82 157//82 
o mesh29
f 161//83 162//83 158//83 
f 158//83 157//83 161//83 
o mesh30
f 163//84 164//84 162//84 
f 162//84 161//84 163//84 
o mesh31
f 165//83 166//83 167//83 
f 160//83 159//83 165//83 
f 165//83 168//83 160//83 
f 167//83 168//83 165//83 
o mesh32
f 167//85 169//85 170//85 
f 170//85 168//85 167//85 
o mesh33
f 171//86 172//86 166//86 
f 166//86 165//86 171//86 
o mesh34
f 166//87 172//87 169//87 
f 169//87 167//87 166//87 
o mesh35
f 173//88 170//88 171//88 
f 171//88 170//88 169//88 
f 169//88 172//88 171//88 
f 171//88 174//88 173//88 
o mesh36
f 175//89 173//89 174//89 
f 174//89 176//89 175//89 
o mesh37
f 177//88 175//88 176//88 
f 176//88 178//88 177//88 
o mesh38
f 179//90 177//90 178//90 
f 178//90 180//90 179//90 
o mesh39
f 175//91 177//91 161//91 
f 181//91 163//91 161//91 
f 177//91 179//91 182//91 
f 161//91 177//91 181//91 
f 161//91 157//91 175//91 
f 170//91 173//91 175//91 
f 157//91 160//91 168//91 
f 175//91 157//91 170//91 
f 182//91 181//91 177//91 
f 168//91 170//91 157//91 
o mesh40
f 183//92 178//92 162//92 
f 158//92 162//92 178//92 
f 178//92 176//92 158//92 
f 165//92 159//92 158//92 
f 171//92 165//92 176//92 
f 158//92 176//92 165//92 
f 162//92 164//92 183//92 
f 178//92 183//92 184//92 
f 184//92 180//92 178//92 
f 176//92 174//92 171//92 
o mesh41
f 182//93 184//93 185//93 
f 180//93 184//93 182//93 
f 182//93 179//93 180//93 
f 185//93 186//93 182//93 
o mesh42
f 183//94 181//94 187//94 
f 163//94 181//94 183//94 
f 183//94 164//94 163//94 
f 187//94 188//94 183//94 
o mesh43
f 186//95 187//95 181//95 
f 181//95 182//95 186//95 
o mesh44
f 183//96 188//96 185//96 
f 185//96 184//96 183//96 
o mesh45
f 186//97 185//97 188//97 
f 188//97 187//97 186//97 
